<svg xmlns="http://www.w3.org/2000/svg" viewBox="0 0 220 800" preserveAspectRatio="xMidYMid meet">
  <ellipse cx="155" cy="85" rx="35" ry="44" fill="#90caf9" opacity="0.9"/>
  <ellipse cx="155" cy="85" rx="20" ry="28" fill="white" opacity="0.2"/>
  <ellipse cx="163" cy="68" rx="8" ry="6" fill="white" opacity="0.25"/>
  <path d="M155 129 Q158 140 156 155" stroke="#90caf9" stroke-width="1.8" fill="none"/>
  <path d="M150 129 Q154 132 155 129 Q156 132 160 129" stroke="#90caf9" stroke-width="1.5" fill="none" opacity="0.5"/>
  <ellipse cx="90" cy="50" rx="28" ry="35" fill="#bbdefb" opacity="0.85"/>
  <ellipse cx="90" cy="50" rx="16" ry="22" fill="white" opacity="0.18"/>
  <ellipse cx="98" cy="37" rx="6" ry="5" fill="white" opacity="0.22"/>
  <path d="M90 85 Q92 94 90 108" stroke="#bbdefb" stroke-width="1.5" fill="none"/>
  <ellipse cx="185" cy="185" rx="22" ry="28" fill="#64b5f6" opacity="0.75"/>
  <ellipse cx="185" cy="185" rx="13" ry="18" fill="white" opacity="0.15"/>
  <path d="M185 213 Q187 221 185 233" stroke="#64b5f6" stroke-width="1.5" fill="none"/>
  <ellipse cx="70" cy="230" rx="34" ry="42" fill="#90caf9" opacity="0.85"/>
  <ellipse cx="70" cy="230" rx="19" ry="27" fill="white" opacity="0.17"/>
  <ellipse cx="80" cy="214" rx="7" ry="6" fill="white" opacity="0.22"/>
  <path d="M70 272 Q72 282 70 296" stroke="#90caf9" stroke-width="1.8" fill="none"/>
  <ellipse cx="165" cy="340" rx="26" ry="33" fill="#bbdefb" opacity="0.8"/>
  <ellipse cx="165" cy="340" rx="15" ry="21" fill="white" opacity="0.16"/>
  <path d="M165 373 Q167 382 165 395" stroke="#bbdefb" stroke-width="1.5" fill="none"/>
  <ellipse cx="60" cy="430" rx="30" ry="37" fill="#64b5f6" opacity="0.72"/>
  <ellipse cx="60" cy="430" rx="17" ry="24" fill="white" opacity="0.14"/>
  <path d="M60 467 Q62 477 60 490" stroke="#64b5f6" stroke-width="1.5" fill="none"/>
  <text x="115" y="155" font-size="14" fill="#42a5f5" opacity="0.5" font-family="sans-serif">&#9829;</text>
  <text x="45" y="180" font-size="10" fill="#90caf9" opacity="0.45" font-family="sans-serif">&#9829;</text>
  <text x="195" y="270" font-size="12" fill="#64b5f6" opacity="0.4" font-family="sans-serif">&#9829;</text>
  <text x="25" y="320" font-size="10" fill="#90caf9" opacity="0.4" font-family="sans-serif">&#9829;</text>
  <text x="130" y="395" font-size="14" fill="#42a5f5" opacity="0.4" font-family="sans-serif">&#9829;</text>
  <circle cx="110" cy="110" r="4" fill="#90caf9" opacity="0.6"/>
  <circle cx="45" cy="140" r="3" fill="#64b5f6" opacity="0.5"/>
  <circle cx="195" cy="225" r="4" fill="#bbdefb" opacity="0.45"/>
  <circle cx="25" cy="270" r="3" fill="#90caf9" opacity="0.4"/>
  <circle cx="140" cy="310" r="3.5" fill="#64b5f6" opacity="0.45"/>
  <circle cx="30" cy="360" r="3" fill="#bbdefb" opacity="0.4"/>
  <circle cx="190" cy="460" r="4" fill="#90caf9" opacity="0.4"/>
  <path d="M30 90 l3 8 l8 3 l-8 3 l-3 8 l-3-8 l-8-3 l8-3 z" fill="#90caf9" opacity="0.4"/>
  <path d="M210 310 l2 6 l6 2 l-6 2 l-2 6 l-2-6 l-6-2 l6-2 z" fill="#64b5f6" opacity="0.35"/>
</svg>
