<svg xmlns="http://www.w3.org/2000/svg" viewBox="0 0 200 250">
  <defs>
    <clipPath id="leftClip"><rect x="0" y="0" width="100" height="200"/></clipPath>
    <clipPath id="rightClip"><rect x="100" y="0" width="100" height="200"/></clipPath>
  </defs>
  <ellipse cx="100" cy="196" rx="38" ry="6" fill="#8d6e63" opacity="0.15"/>
  <ellipse cx="100" cy="96" rx="75" ry="90" fill="#f06292" clip-path="url(#leftClip)"/>
  <ellipse cx="100" cy="96" rx="52" ry="90" fill="#f48fb1" opacity="0.45" clip-path="url(#leftClip)"/>
  <ellipse cx="100" cy="96" rx="26" ry="90" fill="#fce4ec" opacity="0.3" clip-path="url(#leftClip)"/>
  <ellipse cx="100" cy="96" rx="75" ry="90" fill="#90caf9" clip-path="url(#rightClip)"/>
  <ellipse cx="100" cy="96" rx="52" ry="90" fill="#bbdefb" opacity="0.45" clip-path="url(#rightClip)"/>
  <ellipse cx="100" cy="96" rx="26" ry="90" fill="#e3f2fd" opacity="0.3" clip-path="url(#rightClip)"/>
  <line x1="100" y1="6" x2="100" y2="186" stroke="white" stroke-width="2.5" opacity="0.75"/>
  <ellipse cx="100" cy="96" rx="75" ry="90" fill="none" stroke="white" stroke-width="1.5" opacity="0.35"/>
  <ellipse cx="74" cy="52" rx="18" ry="13" fill="white" opacity="0.13"/>
  <ellipse cx="126" cy="52" rx="18" ry="13" fill="white" opacity="0.13"/>
  <text x="100" y="80" text-anchor="middle" font-family="Georgia, serif" font-style="italic" font-size="15" fill="#4a148c" font-weight="700" opacity="0.9">Girl</text>
  <text x="100" y="97" text-anchor="middle" font-family="Georgia, serif" font-size="10" fill="#5d4037" opacity="0.8">or</text>
  <text x="100" y="115" text-anchor="middle" font-family="Georgia, serif" font-style="italic" font-size="15" fill="#0d47a1" font-weight="700" opacity="0.9">Boy</text>
  <text x="100" y="133" text-anchor="middle" font-size="13" fill="#d4a84b" font-family="sans-serif">&#9829;</text>
  <line x1="68" y1="186" x2="68" y2="200" stroke="#795548" stroke-width="1.8" opacity="0.8"/>
  <line x1="100" y1="186" x2="100" y2="200" stroke="#795548" stroke-width="1.8" opacity="0.8"/>
  <line x1="132" y1="186" x2="132" y2="200" stroke="#795548" stroke-width="1.8" opacity="0.8"/>
  <rect x="56" y="200" width="88" height="40" rx="9" fill="#a1887f"/>
  <rect x="61" y="204" width="78" height="32" rx="7" fill="#8d6e63"/>
  <line x1="79" y1="204" x2="79" y2="236" stroke="#6d4c41" stroke-width="1" opacity="0.5"/>
  <line x1="100" y1="204" x2="100" y2="236" stroke="#6d4c41" stroke-width="1" opacity="0.5"/>
  <line x1="121" y1="204" x2="121" y2="236" stroke="#6d4c41" stroke-width="1" opacity="0.5"/>
  <line x1="61" y1="218" x2="139" y2="218" stroke="#6d4c41" stroke-width="1" opacity="0.5"/>
  <rect x="56" y="200" width="88" height="7" rx="3" fill="#bcaaa4" opacity="0.6"/>
  <text x="18" y="64" font-size="11" fill="#f48fb1" opacity="0.7" font-family="sans-serif">&#9829;</text>
  <text x="170" y="74" font-size="11" fill="#90caf9" opacity="0.7" font-family="sans-serif">&#9829;</text>
  <circle cx="28" cy="118" r="3" fill="#d4a84b" opacity="0.55"/>
  <circle cx="172" cy="128" r="3" fill="#d4a84b" opacity="0.55"/>
  <path d="M12 96 l3 7 l7 2.5 l-7 2.5 l-3 7 l-3-7 l-7-2.5 l7-2.5 z" fill="#f48fb1" opacity="0.4"/>
  <path d="M178 100 l2.5 6 l6 2 l-6 2 l-2.5 6 l-2.5-6 l-6-2 l6-2 z" fill="#90caf9" opacity="0.4"/>
</svg>
